#!OML:ASF F:\VICON\USERDATA\INSTALL\rory3\rory3.ASF
:FULLY-SPECIFIED
:DEGREES
1
root -0.919541 17.2067 -32.3062 6.01009 -2.11148 -6.51711
lowerback 17.3357 0.362028 3.1755
upperback 0.490712 1.40434 3.1136
thorax -9.2274 0.606618 1.22073
lowerneck -21.8599 -3.15884 -1.30408
upperneck 12.2822 -4.18143 1.76461
head 7.38848 -1.88494 0.272832
rclavicle 6.4605e-016 -1.78906e-015
rhumerus -37.9155 10.291 -93.6859
rradius 101.158
rwrist -7.89362
rhand -21.3432 39.7636
rfingers 7.12502
rthumb 5.04297 9.8436
lclavicle 6.4605e-016 -1.78906e-015
lhumerus -52.4405 -11.1679 98.1635
lradius 97.5963
lwrist 29.2947
lhand -25.8077 2.8378
lfingers 7.12502
lthumb 0.731511 32.8163
rfemur -22.1466 3.95869 34.8715
rtibia 48.9178
rfoot -22.2726 -18.4846
rtoes -5.58334
lfemur -25.8678 7.18915 -10.7525
ltibia 104.049
lfoot 7.5269 -13.7874
ltoes 0.375135
2
root -0.927316 17.2609 -31.8223 5.80515 -1.22059 -6.50064
lowerback 17.511 0.304778 3.16808
upperback 0.150016 1.37547 3.31606
thorax -9.70876 0.59372 1.45629
lowerneck -20.4894 -3.34881 -1.9078
upperneck 12.1898 -4.29802 1.85441
head 7.15121 -1.97326 0.403537
rclavicle -7.65321e-015 -9.93923e-015
rhumerus -38.4064 10.7864 -93.7985
rradius 103.168
rwrist -9.75467
rhand -22.1101 39.292
rfingers 7.12502
rthumb 4.30244 9.35571
lclavicle -7.65321e-015 -9.93923e-015
lhumerus -54.3959 -10.981 98.9174
lradius 98.5476
lwrist 29.8339
lhand -26.2221 3.05591
lfingers 7.12502
lthumb 0.331228 33.0354
rfemur -19.7939 3.31426 34.9486
rtibia 48.0612
rfoot -22.0007 -18.7096
rtoes -7.77119
lfemur -28.4587 6.77943 -10.8611
ltibia 103.971
lfoot 7.38192 -13.0728
ltoes 4.87438
3
root -0.931805 17.3244 -31.3318 5.57197 -0.488846 -6.66381
lowerback 17.8579 0.409957 3.33439
upperback -0.106163 1.6017 3.49171
thorax -10.1928 0.69323 1.49852
lowerneck -20.1212 -3.60679 -2.10422
upperneck 12.4517 -4.57305 1.67118
head 7.1817 -2.1335 0.344856
rclavicle -6.26172e-015 1.19271e-015
rhumerus -38.5743 10.7365 -93.765
rradius 104.983
rwrist -11.3834
rhand -22.0076 40.1602
rfingers 7.12502
rthumb 4.40145 10.2259
lclavicle -6.26172e-015 1.19271e-015
lhumerus -55.9034 -11.1913 99.5954
lradius 99.3817
lwrist 30.605
lhand -26.3648 3.07418
lfingers 7.12502
lthumb 0.193386 33.0538
rfemur -17.2931 2.81478 35.1722
rtibia 47.0481
rfoot -21.2179 -18.6207
rtoes -9.8119
lfemur -30.7417 6.46412 -10.8395
ltibia 103.346
lfoot 6.35866 -12.3462
ltoes 3.69525
4
root -0.93567 17.4049 -30.8387 5.40461 0.0683935 -6.80948
lowerback 18.1989 0.628409 3.69641
upperback -0.507452 2.00038 3.38272
thorax -10.8215 0.85025 1.07015
lowerneck -19.4073 -3.8573 -1.82481
upperneck 12.5906 -4.96231 1.41575
head 7.10229 -2.33523 0.181216
rclavicle 1.09332e-015 -1.47101e-014
rhumerus -39.2395 10.1389 -93.971
rradius 106.985
rwrist -12.0469
rhand -20.6997 39.9511
rfingers 7.12502
rthumb 5.66426 10.0468
lclavicle 1.09332e-015 -1.47101e-014
lhumerus -57.6865 -11.7653 99.9878
lradius 100.172
lwrist 31.2252
lhand -25.8725 2.97921
lfingers 7.12502
lthumb 0.668898 32.9579
rfemur -14.8229 2.5218 35.3182
rtibia 46.0492
rfoot -20.3255 -18.0223
rtoes -11.4784
lfemur -32.9055 6.22959 -10.9655
ltibia 102.329
lfoot 5.17554 -11.6137
ltoes -0.766464
5
root -0.929082 17.4997 -30.3216 5.28607 0.259383 -7.01229
lowerback 18.0688 0.945508 4.18722
upperback -0.895073 2.52455 3.2288
thorax -11.1527 1.05641 0.485083
lowerneck -18.1143 -4.07429 -1.71756
upperneck 12.4509 -5.30124 1.38942
head 6.84382 -2.50614 0.142359
rclavicle -1.1778e-014 -5.96354e-015
rhumerus -40.0709 9.60331 -94.2449
rradius 109.102
rwrist -12.4761
rhand -20.1736 39.8305
rfingers 7.12502
rthumb 6.17224 9.94042
lclavicle -1.1778e-014 -5.96354e-015
lhumerus -59.6222 -12.2108 100.33
lradius 100.841
lwrist 31.6437
lhand -25.2105 2.54638
lfingers 7.12502
lthumb 1.30823 32.5221
rfemur -12.3615 2.63976 35.4656
rtibia 44.9846
rfoot -19.0169 -17.1692
rtoes -13.7246
lfemur -34.5402 6.24897 -11.1233
ltibia 100.77
lfoot 4.13552 -10.7581
ltoes -2.95595
6
root -0.909187 17.6003 -29.7731 5.38656 -0.174101 -7.10184
lowerback 17.0611 1.41125 4.44168
upperback -0.664851 3.10535 3.17093
thorax -10.2888 1.33448 0.147634
lowerneck -18.827 -4.28206 -1.97822
upperneck 12.906 -5.52487 1.47387
head 7.12422 -2.60925 0.165831
rclavicle 4.47266e-015 2.46493e-014
rhumerus -39.3812 9.86104 -94.1284
rradius 110.504
rwrist -12.8255
rhand -20.6679 40.9097
rfingers 7.12502
rthumb 5.69504 11.0063
lclavicle 4.47266e-015 2.46493e-014
lhumerus -60.2526 -12.1215 100.41
lradius 101.286
lwrist 31.8589
lhand -25.9661 0.863045
lfingers 7.12502
lthumb 0.578528 30.842
rfemur -10.0234 3.19452 35.3307
rtibia 43.8502
rfoot -17.2039 -16.054
rtoes -16.0431
lfemur -35.658 6.75345 -11.5789
ltibia 98.7071
lfoot 1.47669 -9.41285
ltoes -9.18929
7
root -0.891709 17.7129 -29.2365 5.43914 -0.24946 -7.28646
lowerback 16.2871 1.76022 4.83162
upperback -0.621995 3.58056 3.10842
thorax -9.75942 1.55221 -0.231763
lowerneck -18.9189 -4.44186 -1.95078
upperneck 13.1804 -5.74265 1.41561
head 7.23046 -2.71475 0.111592
rclavicle 1.9133e-014 3.37934e-014
rhumerus -39.0966 10.0531 -94.1854
rradius 111.785
rwrist -12.709
rhand -20.9904 40.9488
rfingers 7.12502
rthumb 5.38361 11.0372
lclavicle 1.9133e-014 3.37934e-014
lhumerus -61.3011 -11.806 100.389
lradius 101.96
lwrist 31.8411
lhand -27.5994 1.66599
lfingers 7.12502
lthumb -0.999054 31.6434
rfemur -7.81744 3.29973 35.3058
rtibia 42.6114
rfoot -14.8662 -14.6698
rtoes -18.3362
lfemur -36.7632 6.87355 -11.8874
ltibia 96.2743
lfoot -0.97792 -8.21279
ltoes -14.5904
8
root -0.879364 17.8479 -28.7131 5.20691 0.2646 -7.32832
lowerback 16.3668 1.83457 5.15373
upperback -0.791738 3.75418 3.05664
thorax -9.96422 1.60944 -0.51467
lowerneck -18.8656 -4.57322 -2.05429
upperneck 13.6728 -5.90679 1.42171
head 7.38974 -2.79458 0.105135
rclavicle -2.8128e-014 -1.86858e-014
rhumerus -39.3883 10.3242 -94.2604
rradius 113.136
rwrist -12.0824
rhand -20.892 40.6015
rfingers 7.12502
rthumb 5.47865 10.6923
lclavicle -2.8128e-014 -1.86858e-014
lhumerus -62.474 -11.1596 100.338
lradius 102.509
lwrist 31.9792
lhand -26.1391 -0.777398
lfingers 7.12502
lthumb 0.411417 29.2019
rfemur -5.52403 2.93846 35.1909
rtibia 41.2787
rfoot -12.1501 -12.9557
rtoes -20.2791
lfemur -37.6596 6.26527 -12.3359
ltibia 93.3406
lfoot 0.655072 -7.66304
ltoes -6.50805
9
root -0.865734 17.9847 -28.1798 4.9718 0.85851 -7.07138
lowerback 16.4933 1.74125 5.05218
upperback -1.12981 3.64848 3.09824
thorax -10.4276 1.55037 -0.395166
lowerneck -18.1885 -4.61103 -2.49518
upperneck 14.1129 -5.8661 1.40994
head 7.43348 -2.80296 0.185115
rclavicle -1.08835e-014 -7.95139e-015
rhumerus -39.9789 11.1714 -94.2672
rradius 114.212
rwrist -11.5029
rhand -20.3143 40.888
rfingers 7.12502
rthumb 6.03633 10.994
lclavicle -1.08835e-014 -7.95139e-015
lhumerus -63.6941 -9.76854 100.183
lradius 102.927
lwrist 32.6875
lhand -26.1355 -0.373626
lfingers 7.12502
lthumb 0.414922 29.6057
rfemur -3.30951 2.463 34.7114
rtibia 39.9151
rfoot -8.79833 -11.2397
rtoes -21.1839
lfemur -38.3446 5.44357 -13.1386
ltibia 90.0043
lfoot 0.717616 -6.81302
ltoes -4.35237
10
root -0.85175 18.1056 -27.646 4.75179 1.26187 -6.94824
lowerback 16.3383 2.02302 5.57283
upperback -0.612557 4.01966 2.55236
thorax -9.67005 1.70989 -1.35416
lowerneck -21.1182 -4.95614 -1.55141
upperneck 15.2929 -6.52812 1.21819
head 8.2965 -3.04519 -0.195352
rclavicle -3.97569e-015 -8.74653e-015
rhumerus -38.3034 10.6626 -94.3628
rradius 114.655
rwrist -10.8484
rhand -20.1681 41.3853
rfingers 7.12502
rthumb 6.17752 11.4954
lclavicle -3.97569e-015 -8.74653e-015
lhumerus -63.0725 -10.3439 99.2459
lradius 103.029
lwrist 33.6331
lhand -25.9697 0.758589
lfingers 7.12502
lthumb 0.575022 30.7376
rfemur -1.21755 2.09646 34.3354
rtibia 38.4836
rfoot -4.75142 -9.72482
rtoes -20.9418
lfemur -38.8126 4.80004 -13.7485
ltibia 86.4308
lfoot -0.965389 -5.68579
ltoes -8.07464
11
root -0.836922 18.2115 -27.1146 4.44076 1.90788 -6.85012
lowerback 16.2869 1.79657 5.37131
upperback -1.6558 3.77912 2.84568
thorax -10.855 1.56807 -0.879057
lowerneck -16.3911 -4.68564 -2.30854
upperneck 14.1149 -6.06219 1.41594
head 7.12723 -2.90158 0.175614
rclavicle 7.70291e-015 3.89618e-014
rhumerus -40.8803 12.015 -94.7807
rradius 115.478
rwrist -10.3831
rhand -19.9969 41.5345
rfingers 7.12502
rthumb 6.34282 11.6495
lclavicle 7.70291e-015 3.89618e-014
lhumerus -66.1355 -7.95918 99.2909
lradius 103.343
lwrist 34.2542
lhand -25.176 0.78697
lfingers 7.12502
lthumb 1.34156 30.7625
rfemur 0.828386 1.51529 33.9846
rtibia 36.9738
rfoot 0.0420265 -8.36682
rtoes -20.2176
lfemur -39.0048 3.94558 -14.2562
ltibia 82.6766
lfoot -1.5654 -4.8272
ltoes -9.08805
12
root -0.815381 18.3448 -26.5509 4.35115 2.63983 -6.45657
lowerback 15.5962 1.79378 5.51722
upperback -1.32258 3.69352 2.5363
thorax -10.0544 1.53843 -1.24421
lowerneck -18.0279 -4.78465 -1.91482
upperneck 14.7483 -6.25769 1.32577
head 7.60151 -2.96201 0.0140104
rclavicle 2.93704e-014 1.47101e-014
rhumerus -40.071 12.3453 -94.7497
rradius 115.909
rwrist -9.85013
rhand -19.6896 41.2901
rfingers 7.12502
rthumb 6.63946 11.4142
lclavicle 2.93704e-014 1.47101e-014
lhumerus -66.0545 -7.43669 98.59
lradius 103.318
lwrist 35.1496
lhand -24.6525 0.736101
lfingers 7.12502
lthumb 1.84721 30.7079
rfemur 2.69304 1.04471 33.2703
rtibia 35.4144
rfoot 5.67911 -7.30795
rtoes -19.8746
lfemur -38.894 2.91038 -15.0563
ltibia 78.5129
lfoot -0.279082 -4.08617
ltoes -3.18998
13
root -0.790262 18.4744 -25.9654 4.37409 2.77479 -6.17092
lowerback 14.6067 1.97331 5.55551
upperback -1.28093 3.83775 2.32407
thorax -9.41161 1.62201 -1.48319
lowerneck -18.3029 -4.91555 -1.87374
upperneck 15.1741 -6.46246 1.37803
head 7.79352 -3.04512 -0.0129226
rclavicle -3.3197e-014 1.66979e-014
rhumerus -40.1548 12.8516 -94.8256
rradius 116.302
rwrist -9.3884
rhand -19.6606 41.4941
rfingers 7.12502
rthumb 6.66747 11.6191
lclavicle -3.3197e-014 1.66979e-014
lhumerus -66.6431 -6.67371 98.0409
lradius 103.203
lwrist 35.9131
lhand -24.6016 1.25164
lfingers 7.12502
lthumb 1.89633 31.223
rfemur 4.51929 1.42337 32.6801
rtibia 33.9659
rfoot 11.8491 -6.94719
rtoes -15.7374
lfemur -38.5496 2.45397 -15.7258
ltibia 74.1039
lfoot -2.69818 -3.12994
ltoes -11.4196
14
root -0.768381 18.5714 -25.3957 4.4517 2.84482 -5.89313
lowerback 13.5983 2.1541 5.45294
upperback -1.43333 3.97924 2.17993
thorax -8.9857 1.70521 -1.56552
lowerneck -17.5675 -4.9842 -1.9556
upperneck 15.1874 -6.57254 1.497
head 7.68093 -3.09736 0.0437351
rclavicle 1.49089e-015 -1.70955e-014
rhumerus -40.6639 13.4445 -95.0073
rradius 116.588
rwrist -8.95122
rhand -20.0841 43.0714
rfingers 7.12502
rthumb 6.25861 13.1838
lclavicle 1.49089e-015 -1.70955e-014
lhumerus -67.605 -5.81528 97.593
lradius 103.056
lwrist 36.3666
lhand -24.7602 1.60914
lfingers 7.12502
lthumb 1.74316 31.5818
rfemur 6.24504 2.23101 32.2668
rtibia 32.5578
rfoot 16.1069 -7.3747
rtoes -11.4326
lfemur -38.2869 1.99245 -16.3289
ltibia 69.4862
lfoot -2.72792 -2.32258
ltoes -13.5057
15
root -0.751416 18.6367 -24.8456 4.31834 3.26684 -5.59199
lowerback 13.0334 2.19058 5.39187
upperback -1.48993 3.96325 2.00557
thorax -8.714 1.70508 -1.68787
lowerneck -17.312 -5.0808 -1.97237
upperneck 15.3355 -6.73884 1.6505
head 7.69541 -3.16324 0.0810163
rclavicle 1.35174e-014 1.78906e-014
rhumerus -40.6933 13.815 -94.9592
rradius 117.053
rwrist -10.3433
rhand -18.7748 46.9817
rfingers 7.12502
rthumb 7.52256 17.1355
lclavicle 1.35174e-014 1.78906e-014
lhumerus -68.3063 -5.09141 97.044
lradius 102.816
lwrist 36.4813
lhand -24.8873 1.77816
lfingers 7.12502
lthumb 1.62046 31.7518
rfemur 7.93072 2.64704 31.9724
rtibia 31.5278
rfoot 19.8435 -7.28012
rtoes -5.41929
lfemur -37.8967 1.17659 -16.8853
ltibia 64.6677
lfoot -2.19759 -1.68177
ltoes -17.5341
